<svg width="48" height="48" viewBox="0 0 48 48" fill="none" xmlns="http://www.w3.org/2000/svg">
<circle cx="24" cy="24" r="22.5" stroke="#AAAAAA" stroke-width="3"/>
<path d="M34.7188 12.875C35.8867 12.875 36.875 13.8633 36.875 15.0312V29.4062C36.875 30.6191 35.8867 31.5625 34.7188 31.5625H26.0938L26.8125 33.7188H30.0469C30.6309 33.7188 31.125 34.2129 31.125 34.7969C31.125 35.4258 30.6309 35.875 30.0469 35.875H17.8281C17.1992 35.875 16.75 35.4258 16.75 34.7969C16.75 34.2129 17.1992 33.7188 17.8281 33.7188H21.0625L21.7812 31.5625H13.1562C11.9434 31.5625 11 30.6191 11 29.4062V15.0312C11 13.8633 11.9434 12.875 13.1562 12.875H34.7188ZM34 28.6875V15.75H13.875V28.6875H34Z" fill="#AAAAAA"/>
<line x1="38.238" y1="5.84703" x2="12.238" y2="43.847" stroke="#AAAAAA" stroke-width="3"/>
</svg>
