<svg width="48" height="48" viewBox="0 0 48 48" fill="none" xmlns="http://www.w3.org/2000/svg">
<circle cx="24" cy="24" r="22.5" stroke="#AAAAAA" stroke-width="3"/>
<path d="M29.2812 11.125C30.5508 11.125 31.625 12.1992 31.625 13.4688V33.7812C31.625 35.0996 30.5508 36.125 29.2812 36.125H18.3438C17.0254 36.125 16 35.0996 16 33.7812V13.4688C16 12.1992 17.0254 11.125 18.3438 11.125H29.2812ZM23.8125 34.5625C24.6426 34.5625 25.375 33.8789 25.375 33C25.375 32.1699 24.6426 31.4375 23.8125 31.4375C22.9336 31.4375 22.25 32.1699 22.25 33C22.25 33.8789 22.9336 34.5625 23.8125 34.5625ZM29.2812 29.2891V14.0547C29.2812 13.7617 28.9883 13.4688 28.6953 13.4688H18.9297C18.5879 13.4688 18.3438 13.7617 18.3438 14.0547V29.2891C18.3438 29.6309 18.5879 29.875 18.9297 29.875H28.6953C28.9883 29.875 29.2812 29.6309 29.2812 29.2891Z" fill="#AAAAAA"/>
<line x1="38.238" y1="5.84703" x2="12.238" y2="43.847" stroke="#AAAAAA" stroke-width="3"/>
</svg>
